<svg width="800" height="800" viewBox="0 0 800 800" fill="none" xmlns="http://www.w3.org/2000/svg">
<path d="M353.375 581.547C350.939 580.491 348.114 581.608 347.051 584.037C345.996 586.472 347.113 589.298 349.542 590.36L430.151 625.407C430.768 625.676 431.415 625.804 432.049 625.804C433.911 625.81 435.687 624.73 436.474 622.917C437.53 620.482 436.413 617.65 433.984 616.594L353.375 581.547Z" fill="#F15B5B"/>
<path d="M322.671 568.156L296.151 556.596C293.715 555.534 290.883 556.651 289.828 559.08C288.766 561.516 289.882 564.348 292.312 565.403L318.832 576.963C319.454 577.232 320.101 577.36 320.736 577.366C322.598 577.372 324.368 576.292 325.155 574.479C326.211 572.044 325.1 569.212 322.671 568.156Z" fill="#F15B5B"/>
<path d="M632.312 504.547C632.934 504.815 633.581 504.944 634.216 504.95C636.078 504.956 637.848 503.875 638.641 502.063L661.06 450.622C662.122 448.187 661.011 445.355 658.576 444.299C656.14 443.237 653.308 444.354 652.252 446.783L629.827 498.23C628.765 500.659 629.876 503.485 632.312 504.547Z" fill="#F15B5B"/>
<path d="M617.093 539.484C617.716 539.753 618.363 539.881 618.997 539.887C620.859 539.893 622.629 538.813 623.416 537L630.112 521.644C631.174 519.214 630.057 516.382 627.628 515.32C625.193 514.258 622.361 515.369 621.305 517.804L614.615 533.155C613.547 535.59 614.658 538.422 617.093 539.484Z" fill="#F15B5B"/>
<path d="M457.03 637.219L508.123 659.491C515.428 662.671 523.04 664.19 530.548 664.215C552.508 664.282 573.504 651.519 582.818 630.144L614.208 558.123C615.27 555.687 614.154 552.855 611.724 551.799C609.289 550.737 606.457 551.854 605.401 554.283L574.011 626.305C563.635 650.127 535.796 661.065 511.968 650.683L460.876 628.418C458.441 627.356 455.609 628.473 454.553 630.902C453.485 633.325 454.601 636.157 457.03 637.219Z" fill="#F15B5B"/>
<path d="M77.7964 362.625L72.8649 362.735C60.7005 363.009 51.0258 373.123 51.2945 385.288C51.4227 391.178 53.8458 396.671 58.1061 400.742C62.2442 404.697 67.6398 406.858 73.3466 406.858C73.5114 406.858 73.6823 406.858 73.8532 406.852L78.7847 406.742C84.6807 406.608 90.1679 404.191 94.2388 399.93C98.3099 395.67 100.483 390.079 100.355 384.19C100.074 372.032 89.9248 362.375 77.7964 362.625ZM87.2873 393.295C84.9862 395.7 81.8919 397.067 78.5594 397.14L73.6278 397.25C70.3258 397.36 67.1459 396.097 64.7411 393.802C62.3363 391.501 60.9752 388.406 60.8959 385.08C60.7433 378.214 66.2059 372.501 73.0725 372.348L78.0041 372.238C84.8766 372.153 90.5834 377.548 90.7359 384.415C90.8153 387.735 89.5883 390.89 87.2873 393.295Z" fill="#F15B5B"/>
<path d="M185.296 118.266C185.461 118.266 185.626 118.266 185.796 118.26L190.728 118.15C196.624 118.022 202.111 115.598 206.182 111.344C210.253 107.084 212.426 101.493 212.298 95.6036C212.17 89.7076 209.747 84.2205 205.486 80.1495C201.226 76.0786 195.66 73.9178 189.746 74.0337L184.814 74.1436C172.65 74.4183 162.975 84.5317 163.244 96.6967C163.512 108.69 173.358 118.266 185.296 118.266ZM185.027 83.7438L189.959 83.6339C190.057 83.6278 190.148 83.6278 190.246 83.6278C193.468 83.6278 196.514 84.8485 198.852 87.0823C201.257 89.3834 202.618 92.4778 202.697 95.8042C202.77 99.1306 201.543 102.286 199.248 104.691C196.947 107.096 193.853 108.457 190.52 108.536L185.589 108.646C178.783 108.811 173.01 103.336 172.857 96.4694C172.704 89.6091 178.161 83.9024 185.027 83.7438Z" fill="#F15B5B"/>
<path d="M455.796 473.438C465.373 477.545 472.043 475.22 475.798 466.474C477.226 463.141 478.007 459.284 478.166 454.907L486.503 330.134C487.394 315.968 482.53 306.604 471.904 302.051C461.07 297.406 450.211 300.892 439.318 312.5L354.193 403.266C352.557 404.786 350.842 407.63 349.059 411.793C347.363 415.754 347.283 419.538 348.815 423.157C350.347 426.771 353.094 429.426 357.055 431.129C363.513 433.893 370.013 431.379 376.561 423.585L389.415 409.119L448.79 434.558L446.782 452.191C445.708 463.324 448.71 470.403 455.796 473.438ZM408.738 385.589L460.606 327.55L451.859 404.07L408.738 385.589Z" fill="#F15B5B"/>
<path d="M522.046 475.922L567.707 369.355C573.951 354.773 572.285 345.423 562.702 341.322C552.906 337.129 544.886 342.323 538.643 356.904L492.982 463.471C486.823 477.845 488.636 487.135 498.432 491.328C508.015 495.435 515.888 490.296 522.046 475.922Z" fill="#F15B5B"/>
<path d="M137.937 405.359L208.122 403.815C211.473 403.736 214.469 405.298 216.337 408.082C218.205 410.865 218.51 414.228 217.167 417.298L197.575 462.238C191.52 476.13 191.252 491.554 196.806 505.665C202.36 519.77 213.072 530.873 226.97 536.928L268.926 555.213C269.549 555.482 270.196 555.61 270.831 555.616C272.686 555.622 274.462 554.542 275.25 552.729C276.312 550.294 275.195 547.462 272.765 546.406L230.809 528.12C219.261 523.091 210.362 513.868 205.748 502.15C201.134 490.425 201.36 477.62 206.383 466.078L225.975 421.137C228.612 415.089 227.989 408.204 224.315 402.723C220.641 397.242 214.537 394.026 207.909 394.203L137.724 395.753C134.013 395.808 130.504 394.282 128.063 391.487C125.591 388.655 124.559 385.005 125.157 381.202C126.067 375.428 131.596 370.967 138.017 370.826L302.346 367.201C308.998 367.054 315.016 363.02 317.671 356.916C320.021 351.533 319.466 345.405 316.194 340.523C312.923 335.64 307.442 332.814 301.589 332.942L200.514 335.17C196.815 335.231 193.318 333.705 190.882 330.94C188.41 328.133 187.367 324.501 187.934 320.717C188.813 314.888 194.404 310.383 200.941 310.243L261.817 308.9C269.837 308.723 277.094 303.859 280.299 296.504L324.592 194.893C327.028 189.308 326.454 182.949 323.06 177.889C319.667 172.829 314.003 169.893 307.911 170.021L290.608 170.406C286.904 170.454 283.412 168.941 280.977 166.176C278.505 163.368 277.455 159.737 278.029 155.952C278.908 150.123 284.499 145.619 291.036 145.479L361.55 143.922C369.161 143.758 376.039 139.137 379.086 132.161C381.771 126.003 381.142 118.99 377.395 113.411C373.647 107.832 367.373 104.555 360.69 104.738L259.615 106.966C255.923 107.021 252.419 105.507 249.984 102.736C247.512 99.9283 246.468 96.2968 247.036 92.5126C247.915 86.6837 253.506 82.1793 260.042 82.039L379.519 79.4023C386.154 79.2558 392.605 78.1083 398.038 77.0098C407.529 75.0871 417.233 76.1186 426.102 80.0005L625.367 166.811L616.029 182.253C612.263 188.485 605.665 192.312 598.39 192.495L518.488 194.515C506.202 194.827 496.332 204.257 496.015 215.975C495.85 222.103 498.133 227.858 502.454 232.186C506.714 236.452 512.616 238.802 518.629 238.655L585.182 236.971C587.929 236.946 589.235 238.71 589.687 239.486C590.138 240.267 591.042 242.33 589.644 244.643C588.747 246.126 587.178 247.036 585.445 247.084L559.304 247.744C547.018 248.055 537.148 257.479 536.831 269.203C536.666 275.331 538.949 281.087 543.27 285.414C547.53 289.68 553.426 292.03 559.445 291.884L570.425 291.603C573.599 291.517 578.988 292.952 581.771 294.649L690.023 360.127L658.114 433.333C657.052 435.768 658.169 438.6 660.598 439.656C663.027 440.712 665.865 439.601 666.921 437.172L700.216 360.774L700.357 360.426C700.674 359.638 700.772 358.79 700.656 357.966C700.698 357.35 700.637 356.727 700.442 356.129L672.33 270.088L637.894 163.544C637.656 162.812 637.234 162.165 636.697 161.634C636.179 160.847 635.44 160.194 634.592 159.803C633.884 159.473 633.139 159.351 632.407 159.382L429.953 71.1927C419.266 66.5174 407.572 65.2723 396.133 67.5916C391.116 68.6109 385.19 69.6668 379.311 69.7951L259.835 72.4318C248.69 72.6759 239.107 80.696 237.538 91.0787C236.555 97.6155 238.459 104.177 242.775 109.083C247.09 113.991 253.346 116.743 259.834 116.572L360.909 114.345C364.382 114.284 367.489 115.883 369.423 118.764C371.358 121.651 371.676 125.136 370.284 128.322C368.734 131.88 365.224 134.236 361.348 134.315L290.834 135.872C279.689 136.116 270.106 144.136 268.537 154.525C267.555 161.062 269.459 167.623 273.774 172.529C278.09 177.431 284.346 180.165 290.834 180.018L308.137 179.64C311.018 179.597 313.514 180.897 315.095 183.253C316.676 185.615 316.932 188.46 315.797 191.066L271.503 292.677C269.788 296.607 265.912 299.214 261.621 299.305L200.745 300.648C189.6 300.892 180.017 308.912 178.448 319.295C177.459 325.832 179.37 332.393 183.685 337.3C188 342.206 194.262 344.935 200.744 344.789L301.819 342.561C304.432 342.524 306.775 343.714 308.234 345.893C309.693 348.066 309.931 350.691 308.881 353.089C307.715 355.769 305.072 357.539 302.149 357.606L137.821 361.231C126.645 361.476 117.332 369.251 115.677 379.719C114.639 386.286 116.519 392.884 120.835 397.822C125.15 402.76 131.418 405.525 137.942 405.36L137.937 405.359Z" fill="#F15B5B"/>
<path d="M742.562 721.25H701.594C698.201 721.25 695.448 724.003 695.448 727.396C695.448 730.79 698.201 733.543 701.594 733.543H742.562C745.955 733.543 748.708 730.79 748.708 727.396C748.708 724.003 745.961 721.25 742.562 721.25Z" fill="#F15B5B"/>
<path d="M679.062 721.25H601.224C597.831 721.25 595.078 724.003 595.078 727.396C595.078 730.79 597.825 733.543 601.224 733.543H679.062C682.455 733.543 685.208 730.79 685.208 727.396C685.202 724.003 682.455 721.25 679.062 721.25Z" fill="#F15B5B"/>
<path d="M578.703 721.25H179.281C175.887 721.25 173.135 724.003 173.135 727.396C173.135 730.79 175.887 733.543 179.281 733.543H578.703C582.096 733.543 584.849 730.79 584.849 727.396C584.843 724.003 582.096 721.25 578.703 721.25Z" fill="#F15B5B"/>
<path d="M146.5 721.25H109.628C106.234 721.25 103.481 724.003 103.481 727.396C103.481 730.79 106.234 733.543 109.628 733.543H146.5C149.893 733.543 152.646 730.79 152.646 727.396C152.64 724.003 149.893 721.25 146.5 721.25Z" fill="#F15B5B"/>
</svg>
