<svg width="801" height="800" viewBox="0 0 801 800" fill="none" xmlns="http://www.w3.org/2000/svg">
<path d="M400.201 769.002C374.103 769.002 349.072 758.632 330.622 740.181C312.165 721.725 301.801 696.7 301.801 670.602H227.998C221.474 670.602 215.218 668.008 210.603 663.393C205.989 658.779 203.401 652.523 203.401 645.998V498.403C168.245 498.403 135.762 479.647 118.184 449.203C100.605 418.753 100.605 381.247 118.184 350.801C135.762 320.356 168.245 301.601 203.401 301.601V154C203.401 147.475 205.989 141.219 210.603 136.604C215.217 131.99 221.473 129.396 227.998 129.396H301.801C301.801 94.2461 320.558 61.757 351.001 44.1789C381.445 26.607 418.951 26.607 449.403 44.1789C479.847 61.757 498.603 94.2461 498.603 129.396H572.4C578.925 129.396 585.181 131.99 589.795 136.604C594.41 141.219 596.997 147.475 596.997 154V301.601C632.154 301.601 664.643 320.357 682.215 350.801C699.793 381.245 699.793 418.751 682.215 449.203C664.643 479.647 632.154 498.403 596.997 498.403V646.004V645.998C596.997 652.523 594.41 658.779 589.795 663.394C585.181 668.008 578.925 670.602 572.4 670.602H498.603C498.603 696.7 488.233 721.725 469.783 740.182C451.326 758.633 426.295 769.002 400.203 769.002L400.201 769.002ZM252.6 621.4H326.397C332.921 621.4 339.178 623.994 343.792 628.602C348.406 633.217 351 639.473 351 645.998V670.601C351 688.179 360.375 704.421 375.597 713.21C390.819 721.999 409.575 721.999 424.797 713.21C440.019 704.421 449.4 688.179 449.4 670.601V645.998C449.4 639.473 451.988 633.217 456.603 628.602C461.217 623.994 467.473 621.4 473.998 621.4H547.795V473.799C547.795 467.274 550.389 461.018 555.003 456.403C559.617 451.789 565.873 449.201 572.398 449.201H596.995C614.573 449.201 630.815 439.82 639.605 424.598C648.394 409.376 648.394 390.62 639.605 375.398C630.815 360.176 614.573 350.801 596.995 350.801H572.398C565.874 350.801 559.617 348.207 555.003 343.593C550.389 338.979 547.795 332.722 547.795 326.197V178.596H473.998C467.473 178.596 461.217 176.008 456.603 171.394C451.988 166.779 449.4 160.523 449.4 153.998V129.395C449.4 111.817 440.019 95.575 424.797 86.7859C409.575 77.9969 390.819 77.9969 375.597 86.7859C360.375 95.575 351 111.817 351 129.395V153.998C351 160.523 348.406 166.779 343.792 171.394C339.178 176.008 332.922 178.596 326.397 178.596H252.6V326.197C252.6 332.722 250.006 338.978 245.392 343.593C240.777 348.207 234.521 350.801 227.996 350.801H203.399C185.821 350.801 169.579 360.176 160.79 375.398C152.001 390.62 152.001 409.376 160.79 424.598C169.579 439.82 185.821 449.201 203.399 449.201H227.996C234.521 449.201 240.777 451.789 245.392 456.403C250.006 461.018 252.6 467.274 252.6 473.799V621.4Z" fill="#F15B5B"/>
</svg>
