<svg width="800" height="701" viewBox="0 0 800 701" fill="none" xmlns="http://www.w3.org/2000/svg">
<path d="M241.842 377.696C246.493 395.873 258.229 411.424 274.428 420.891C275.099 421.282 275.807 421.557 276.485 421.923V421.929C275.001 426.507 274.422 431.328 274.775 436.126C275.673 447.326 280.751 457.77 288.997 465.398C297.242 473.021 308.051 477.269 319.283 477.287C320.485 477.287 321.694 477.239 322.908 477.141V477.147C325.105 476.952 327.29 476.616 329.451 476.146C332.662 485.399 339.156 493.144 347.707 497.924C356.252 502.703 366.256 504.174 375.82 502.068C385.378 499.957 393.837 494.409 399.575 486.48C405.324 494.408 413.784 499.957 423.348 502.068C432.912 504.174 442.915 502.703 451.467 497.93C460.018 493.151 466.518 485.406 469.734 476.152C471.87 476.616 474.031 476.952 476.21 477.141C477.424 477.239 478.621 477.287 479.817 477.287C491.053 477.263 501.875 473.021 510.126 465.392C518.384 457.768 523.469 447.32 524.378 436.113C524.732 431.322 524.146 426.501 522.663 421.923C539.814 412.603 552.344 396.606 557.288 377.721C560.199 366.515 559.699 354.699 555.847 343.779C551.996 332.86 544.971 323.338 535.675 316.442C541.767 300.384 540.662 282.488 532.648 267.296C527.094 255.321 518.036 245.318 506.672 238.592C501.606 235.68 495.984 233.855 490.173 233.227C486.297 220.952 477.868 210.625 466.614 204.375C455.365 198.125 442.145 196.422 429.675 199.614C417.205 202.813 406.433 210.662 399.572 221.556C392.717 210.637 381.933 202.77 369.445 199.572C356.957 196.374 343.718 198.095 332.464 204.375C321.209 210.656 312.792 221.013 308.947 233.318C305.883 233.586 302.855 234.215 299.938 235.198C285.076 241.179 273.094 252.66 266.497 267.26C258.361 282.452 257.244 300.432 263.439 316.515C254.174 323.412 247.168 332.915 243.316 343.81C239.471 354.711 238.958 366.502 241.839 377.698L241.842 377.696ZM442.154 213.79C449.088 213.759 455.869 215.829 461.606 219.723C467.343 223.623 471.762 229.159 474.295 235.616C473.849 235.806 473.386 235.946 472.946 236.16C465.585 239.87 459.86 246.182 456.888 253.866C452.653 251.687 447.996 250.448 443.241 250.24C441.147 250.143 439.103 250.887 437.558 252.303C436.014 253.719 435.099 255.691 435.013 257.784C434.928 259.878 435.685 261.922 437.113 263.454C438.535 264.993 440.519 265.896 442.612 265.969C447.239 266.152 451.609 268.166 454.752 271.572C457.895 274.972 459.562 279.488 459.378 284.121C459.293 286.202 460.038 288.241 461.454 289.773C462.87 291.305 464.841 292.214 466.928 292.3L467.252 292.306H467.246C471.469 292.3 474.936 288.967 475.107 284.75C475.376 277.956 473.539 271.243 469.84 265.535C470.578 259.182 474.271 253.548 479.801 250.338C486.136 247.805 493.308 248.556 498.984 252.34C507.541 257.485 514.34 265.096 518.483 274.183C524.178 284.84 525.374 297.327 521.822 308.875C519.777 308.082 517.696 307.405 515.578 306.843C499.239 302.638 481.892 307.289 469.85 319.105C468.361 320.57 467.518 322.566 467.5 324.653C467.482 326.747 468.3 328.755 469.765 330.244C471.236 331.733 473.231 332.576 475.325 332.588C477.412 332.6 479.42 331.782 480.91 330.311C488.991 322.371 500.649 319.252 511.616 322.084C522.511 324.891 531.842 331.923 537.55 341.621C543.257 351.313 544.868 362.885 542.036 373.774C538.923 385.554 531.996 395.979 522.335 403.413C512.679 410.847 500.832 414.876 488.644 414.87C486.306 407.936 481.723 401.985 475.619 397.951C471.988 395.577 467.111 396.59 464.731 400.221C462.35 403.847 463.351 408.723 466.977 411.11C470.852 413.649 473.562 417.629 474.502 422.163C475.448 426.698 474.551 431.429 472.006 435.298C470.858 437.044 470.456 439.174 470.877 441.219C471.304 443.263 472.519 445.058 474.264 446.199C477.902 448.586 482.779 447.578 485.165 443.941C487.79 439.906 489.492 435.341 490.164 430.58C496.231 430.464 502.249 429.561 508.078 427.882C508.652 430.165 508.859 432.527 508.676 434.877C508.06 442.543 504.422 449.654 498.562 454.635C492.703 459.621 485.098 462.069 477.433 461.453C475.559 461.3 473.704 461.001 471.872 460.561C471.384 450.948 467.447 441.843 460.782 434.902C454.117 427.962 445.17 423.659 435.581 422.787C434.702 422.719 433.841 422.665 432.968 422.665V422.671C428.623 422.671 425.095 426.192 425.095 430.544C425.095 434.89 428.623 438.412 432.968 438.412C433.463 438.412 433.951 438.454 434.281 438.479H434.287C440.311 439.114 445.89 441.946 449.96 446.432C454.031 450.924 456.302 456.753 456.338 462.813C456.351 463.71 456.302 464.607 456.192 465.499C455.27 473.86 450.113 481.155 442.544 484.822C434.976 488.484 426.052 488.002 418.924 483.54C411.789 479.079 407.456 471.26 407.443 462.85L407.449 462.813L407.437 462.776V404.567L407.443 404.53H407.449C407.455 392.555 417.16 382.851 429.135 382.838C433.481 382.838 437.009 379.31 437.009 374.965C437.009 370.619 433.481 367.091 429.135 367.091C421.341 367.103 413.754 369.569 407.437 374.141V248.506C407.449 239.302 411.111 230.476 417.618 223.97C424.13 217.458 432.95 213.802 442.154 213.79ZM280.654 274.135C285.415 263.283 294.155 254.671 305.081 250.076C309.677 248.275 314.791 248.367 319.32 250.338C325.882 254.269 329.91 261.343 329.953 268.991C330.38 273.307 334.213 276.468 338.534 276.059C342.855 275.65 346.029 271.817 345.627 267.496C345.169 254.343 337.765 242.416 326.181 236.166C325.742 235.953 325.26 235.861 324.814 235.672H324.82C327.341 229.202 331.766 223.654 337.503 219.748C343.247 215.842 350.034 213.761 356.974 213.791C366.178 213.804 375.003 217.46 381.516 223.972C388.022 230.478 391.684 239.304 391.69 248.508V335.745C391.678 347.721 381.98 357.425 370.004 357.438C365.652 357.438 362.131 360.965 362.131 365.311C362.131 369.657 365.652 373.185 370.004 373.185C377.792 373.173 385.379 370.707 391.69 366.141V462.815C391.696 471.256 387.345 479.093 380.185 483.56C373.026 488.028 364.073 488.486 356.491 484.775C348.917 481.064 343.784 473.709 342.923 465.317C342.826 464.487 342.789 463.651 342.795 462.814C342.838 457.651 344.492 452.628 347.538 448.459C350.583 444.284 354.856 441.171 359.763 439.554C361.319 445.053 364.279 450.052 368.357 454.062C371.469 457.089 376.456 457.016 379.483 453.897C382.517 450.778 382.444 445.798 379.325 442.764C376.004 439.536 374.1 435.123 374.033 430.49C373.972 425.858 375.748 421.39 378.977 418.07C380.448 416.574 381.26 414.554 381.235 412.461C381.211 410.367 380.356 408.365 378.855 406.906C377.353 405.448 375.327 404.642 373.233 404.679C371.14 404.709 369.144 405.582 367.691 407.089C363.254 411.649 360.233 417.398 358.994 423.643C350.364 425.413 342.563 429.996 336.82 436.68C331.077 443.363 327.714 451.762 327.262 460.563C325.425 461.008 323.558 461.301 321.672 461.454C314.012 462.07 306.419 459.617 300.565 454.636C294.718 449.65 291.08 442.551 290.458 434.891C290.281 432.565 290.476 430.228 291.038 427.969C297.251 429.752 303.678 430.661 310.142 430.679C316.173 430.673 322.172 429.904 328.008 428.391C332.219 427.304 334.746 423.007 333.66 418.796C332.567 414.585 328.277 412.058 324.065 413.144C309.954 416.812 294.97 414.719 282.409 407.327C269.842 399.936 260.729 387.857 257.073 373.746C254.271 362.864 255.901 351.316 261.602 341.629C267.308 331.943 276.616 324.918 287.492 322.091C296.416 319.827 305.883 321.463 313.53 326.59C310.899 332.174 309.892 338.382 310.625 344.504C311.101 348.453 314.445 351.425 318.425 351.431C318.742 351.431 319.066 351.413 319.383 351.376C321.452 351.12 323.344 350.058 324.632 348.416C325.92 346.774 326.5 344.687 326.25 342.612C325.096 333.035 331.92 324.332 341.502 323.173C345.817 322.648 348.894 318.729 348.369 314.414C347.85 310.099 343.925 307.023 339.61 307.542C333.696 308.28 328.099 310.612 323.405 314.286C311.858 306.058 297.269 303.342 283.53 306.858C281.419 307.413 279.337 308.091 277.305 308.878C273.777 297.312 274.979 284.819 280.656 274.138L280.654 274.135Z" fill="#F15B5B"/>
</svg>
