<svg width="800" height="799" viewBox="0 0 800 799" fill="none" xmlns="http://www.w3.org/2000/svg">
<path d="M168.074 211.365C174.373 217.664 182.247 220.813 190.113 220.813C197.987 220.813 205.86 217.664 212.153 211.365C224.75 198.767 224.75 179.09 212.153 167.279L163.349 118.47C150.752 105.872 131.074 105.872 119.264 118.47C107.453 131.067 106.666 150.745 119.264 162.556L168.074 211.365Z" fill="#F15B5B"/>
<path d="M131.856 274.349L65.7306 257.028C49.2024 252.304 31.8806 262.539 27.1556 279.067C22.4315 295.595 32.667 312.917 49.1946 317.642L115.32 335.745C117.682 336.532 120.831 336.532 123.193 336.532C137.366 336.532 149.957 327.084 153.893 312.918C158.617 296.39 148.389 279.068 131.856 274.349Z" fill="#F15B5B"/>
<path d="M275.137 131.068C279.074 145.241 291.665 154.682 305.837 154.682C308.199 154.682 311.348 154.682 313.71 153.895C330.239 149.171 340.475 131.856 335.75 115.32L317.646 49.195C312.922 32.6668 295.607 22.4309 279.071 27.1559C262.543 31.88 252.307 49.195 257.032 65.7309L275.137 131.068Z" fill="#F15B5B"/>
<path d="M630.949 586.084C618.352 573.486 598.674 573.486 586.863 586.084C574.266 598.682 574.266 618.359 586.863 630.17L635.666 678.973C641.965 685.272 649.839 688.421 657.705 688.421C665.579 688.421 673.452 685.272 679.744 678.973C692.342 666.375 692.342 646.698 679.744 634.887L630.949 586.084Z" fill="#F15B5B"/>
<path d="M749.825 479.803L683.7 461.7C667.171 456.975 649.85 467.211 645.125 483.739C640.4 500.266 650.636 517.589 667.164 522.314L733.289 540.417C735.651 541.204 738.8 541.204 741.162 541.204C755.335 541.204 767.926 531.756 771.862 517.59C776.586 501.843 766.352 484.528 749.825 479.803Z" fill="#F15B5B"/>
<path d="M523.887 666.365C519.163 649.837 501.848 639.601 485.312 644.326C468.784 649.05 458.548 666.365 463.273 682.901L481.376 749.026C485.312 763.198 497.904 772.64 512.076 772.64C514.438 772.64 517.587 772.64 519.949 771.853C536.477 767.129 546.713 749.814 541.988 733.278L523.887 666.365Z" fill="#F15B5B"/>
<path d="M639.606 389.271L557.738 306.618C568.761 298.745 580.565 291.659 593.163 285.365C602.612 280.641 611.267 272.768 617.565 262.539C628.588 243.648 628.588 220.028 617.565 201.925C596.312 168.075 550.653 164.137 524.676 190.902C519.952 195.626 516.802 200.35 513.653 205.861C507.354 218.459 500.268 230.263 492.4 241.286L408.953 158.621C403.442 153.109 394.781 153.109 389.275 158.621L320 227.896C313.701 234.194 314.488 245.211 322.362 249.935C328.661 253.871 334.172 257.021 341.252 260.17C346.764 263.32 351.488 266.469 356.212 271.193C382.976 297.957 379.039 342.831 345.189 364.082C327.086 375.893 302.678 375.893 283.788 364.082C273.552 357.784 265.685 349.123 260.961 339.681C257.812 333.382 254.662 327.083 250.725 321.578C246.001 313.704 234.979 312.917 228.686 319.216L159.411 388.491C153.9 394.002 153.9 402.663 159.411 408.169L241.279 490.036C230.256 497.91 218.452 504.996 206.641 511.289C197.193 516.013 188.538 523.887 182.24 534.116C171.217 553.006 171.217 576.627 182.24 594.73C203.493 628.58 249.152 632.517 275.129 605.753C279.853 601.029 283.002 596.304 286.152 590.793C292.45 578.983 299.537 567.179 307.405 556.155L389.272 638.023C394.783 643.534 403.444 643.534 408.95 638.023L478.225 568.748C484.524 562.449 483.736 551.432 475.863 546.709C469.564 542.772 464.053 539.622 456.972 536.473C451.461 533.324 446.737 530.174 442.013 525.45C415.249 498.686 419.186 453.813 453.036 432.561C471.139 420.751 495.547 420.751 514.437 432.561C524.673 438.86 532.54 447.521 537.264 456.963C540.413 463.261 543.563 469.56 547.499 475.066C552.223 482.939 563.246 483.727 569.538 477.428L638.813 408.153C645.118 403.441 645.118 394.786 639.607 389.275L639.606 389.271Z" fill="#F15B5B"/>
</svg>
