<svg width="800" height="801" viewBox="0 0 800 801" fill="none" xmlns="http://www.w3.org/2000/svg">
<path d="M189.61 612.872H329.259C335.637 612.872 341.38 615.783 345.006 620.746C348.546 625.549 349.571 631.61 347.758 637.2L336.735 672.155C332.09 686.797 334.691 702.386 343.822 714.819C353.19 727.649 367.833 734.972 383.892 734.972H415.301C431.359 734.972 445.923 727.654 455.372 714.819C464.503 702.38 467.102 686.791 462.458 672.155L451.435 637.2C449.622 631.53 450.647 625.549 454.187 620.746C457.886 615.71 463.636 612.872 469.934 612.872H609.583C613.202 612.872 616.193 609.961 616.193 606.262L616.199 469.446C616.199 459.29 611.475 450.001 603.211 443.86C594.788 437.562 584.162 435.755 574.006 438.825L538.344 449.61C527.089 452.997 515.2 450.946 505.751 444.019C496.7 437.25 491.506 427.014 491.506 415.919V385.139C491.506 374.037 496.7 363.808 505.751 357.039C515.2 350.032 527.083 347.988 538.344 351.448L574.006 362.233C584.083 365.303 594.789 363.411 603.211 357.198C611.475 351.058 616.199 341.768 616.199 331.612V194.71C616.199 191.091 613.288 188.1 609.589 188.1H470.014C463.636 188.1 457.892 185.189 454.267 180.227C450.727 175.423 449.702 169.362 451.514 163.772L462.537 128.817C467.182 114.175 464.582 98.5859 455.451 86.1531C446.082 73.3236 431.44 66 415.381 66H383.971C367.914 66 353.35 73.3181 343.901 86.1531C334.77 98.592 332.17 114.181 336.815 128.817L347.838 163.772C349.651 169.442 348.625 175.423 345.085 180.227C341.386 185.262 335.637 188.1 329.338 188.1H189.61C185.991 188.1 183 191.012 183 194.71V331.606C183 341.762 187.724 351.051 195.988 357.192C204.411 363.49 215.037 365.297 225.193 362.227L260.855 351.442C272.11 348.055 283.999 350.106 293.448 357.033C302.499 363.802 307.693 374.038 307.693 385.133V415.913C307.693 427.015 302.499 437.244 293.448 444.013C283.999 451.02 272.116 453.064 260.855 449.603L225.193 438.819C215.116 435.749 204.41 437.641 195.988 443.854C187.724 449.994 183 459.284 183 469.44V606.335C183.079 609.961 185.991 612.872 189.61 612.872ZM196.22 469.445C196.22 463.543 198.973 458.032 203.856 454.412C208.891 450.634 215.27 449.53 221.331 451.422L256.993 462.207C272.344 466.851 288.481 464.019 301.231 454.571C313.749 445.275 320.915 431.188 320.915 415.838V385.059C320.915 369.708 313.75 355.615 301.317 346.405C288.487 336.878 272.35 334.125 257.079 338.77L221.417 349.555C215.356 351.368 208.978 350.263 203.942 346.564C199.059 342.945 196.306 337.512 196.306 331.531L196.3 201.245H329.339C339.886 201.245 349.572 196.362 355.792 187.94C361.853 179.675 363.587 169.44 360.517 159.68L349.494 124.725C346.106 114.099 347.998 102.838 354.688 93.7864C361.536 84.4175 372.32 79.0647 384.131 79.0647H415.541C427.351 79.0647 438.056 84.4175 444.985 93.7864C451.595 102.838 453.487 114.099 450.179 124.725L439.156 159.68C436.086 169.36 437.819 179.675 443.88 187.94C450.099 196.362 459.7 201.245 470.333 201.245H603.372V331.525C603.372 337.427 600.619 342.938 595.736 346.558C590.701 350.336 584.323 351.441 578.261 349.549L542.599 338.764C527.249 334.119 511.111 336.951 498.361 346.399C485.526 355.695 478.36 369.788 478.36 385.138V415.918C478.36 431.268 485.525 445.362 497.958 454.571C510.788 464.099 526.925 466.851 542.196 462.207L577.858 451.422C583.919 449.609 590.297 450.714 595.333 454.412C600.216 458.032 602.969 463.464 602.969 469.445V599.725H469.93C459.383 599.725 449.697 604.608 443.477 613.031C437.416 621.295 435.682 631.531 438.753 641.29L449.775 676.245C453.163 686.871 451.271 698.132 444.581 707.184C437.733 716.553 426.949 721.906 415.138 721.906H383.728C371.918 721.906 361.213 716.553 354.285 707.184C347.674 698.132 345.782 686.871 349.09 676.245L360.113 641.29C363.183 631.61 361.45 621.295 355.389 613.031C349.17 604.608 339.569 599.725 328.936 599.725H195.897L195.909 469.445H196.22Z" fill="#F15B5B"/>
</svg>
