<svg width="800" height="800" viewBox="0 0 800 800" fill="none" xmlns="http://www.w3.org/2000/svg">
<path d="M721.997 340.032H674.286C667.724 340.032 662.359 345.397 662.359 351.958C662.359 358.52 667.724 363.885 674.286 363.885H721.997C728.558 363.885 733.923 358.52 733.923 351.958C733.923 345.397 728.558 340.032 721.997 340.032Z" fill="#F15B5B"/>
<path d="M125.637 340.032H77.9262C71.365 340.032 66 345.397 66 351.958C66 358.52 71.365 363.885 77.9262 363.885H125.637C132.198 363.885 137.563 358.52 137.563 351.958C137.563 345.397 132.192 340.032 125.637 340.032Z" fill="#F15B5B"/>
<path d="M602.371 537.548C597.72 532.897 590.207 532.897 585.556 537.548C580.905 542.199 580.905 549.712 585.556 554.363L619.309 588.117C621.695 590.503 624.674 591.577 627.774 591.577C630.875 591.577 633.859 590.387 636.24 588.117C640.891 583.466 640.891 575.952 636.24 571.301L602.371 537.548Z" fill="#F15B5B"/>
<path d="M197.559 166.376C199.945 168.762 202.924 169.836 206.025 169.836C209.125 169.836 212.11 168.646 214.49 166.376C219.141 161.725 219.141 154.211 214.49 149.56L180.743 115.802C176.092 111.151 168.579 111.151 163.928 115.802C159.277 120.453 159.277 127.967 163.928 132.618L197.559 166.376Z" fill="#F15B5B"/>
<path d="M399.965 89.5634C406.527 89.5634 411.892 84.1984 411.892 77.6372V29.9262C411.892 23.365 406.527 18 399.965 18C393.404 18 388.039 23.365 388.039 29.9262V77.6372C388.033 84.1984 393.404 89.5634 399.965 89.5634Z" fill="#F15B5B"/>
<path d="M197.559 537.548L163.806 571.301C159.155 575.952 159.155 583.465 163.806 588.117C166.192 590.503 169.171 591.577 172.272 591.577C175.372 591.577 178.357 590.387 180.737 588.117L214.49 554.363C219.141 549.712 219.141 542.199 214.49 537.548C209.846 532.897 202.21 532.897 197.559 537.548Z" fill="#F15B5B"/>
<path d="M619.184 115.798L585.431 149.551C580.78 154.202 580.78 161.715 585.431 166.367C587.817 168.753 590.796 169.827 593.896 169.827C596.997 169.827 599.981 168.637 602.362 166.367L636.115 132.613C640.766 127.962 640.766 120.449 636.115 115.798C631.47 111.147 623.957 111.147 619.184 115.798Z" fill="#F15B5B"/>
<path d="M638.512 351.954C638.512 284.206 609.526 219.44 558.959 174.11C507.793 128.31 441.595 107.198 372.662 114.832C262.451 126.997 174.193 215.973 162.615 326.301C154.864 400.251 180.981 472.053 234.301 523.348C267.34 555.074 287.615 596.224 291.553 638.089V638.327C285.583 638.925 280.695 643.814 280.695 650.137V721.701C280.695 728.262 286.059 733.627 292.621 733.627H328.405V769.412C328.405 775.973 333.77 781.338 340.331 781.338H459.606C466.168 781.338 471.533 775.973 471.533 769.412V733.627H507.317C513.878 733.627 519.243 728.262 519.243 721.701V650.137C519.243 643.936 514.354 638.925 508.269 638.449C512.444 595.749 532.482 555.075 565.044 523.947C612.39 478.506 638.513 417.435 638.513 351.963L638.512 351.954ZM447.668 757.485H352.253V733.632H447.668V757.485ZM495.379 709.775H304.535V662.064H495.379V709.775ZM484.405 638.21H315.514V637.136C310.98 588.472 288.079 542.074 250.988 506.296C203.038 460.135 179.546 395.492 186.461 328.936C196.837 229.699 276.274 149.671 375.383 138.702C437.524 131.786 497.044 150.75 543.086 192.016C588.527 232.689 614.65 291.014 614.65 352.078C614.65 411.002 591.152 465.981 548.452 506.778C511.599 541.966 488.815 588.364 484.402 638.217L484.405 638.21Z" fill="#F15B5B"/>
<path d="M380.637 186.048C387.198 185.334 391.849 179.371 391.135 172.925C390.421 166.364 384.574 161.713 378.013 162.427C289.988 172.205 219.388 243.293 210.2 331.443C209.486 338.004 214.253 343.845 220.814 344.565C221.29 344.565 221.65 344.687 222.004 344.687C228.09 344.687 233.217 340.152 233.815 333.951C241.926 256.784 303.705 194.639 380.641 186.051L380.637 186.048Z" fill="#F15B5B"/>
<path d="M534.028 356.142L517.451 351.967C515.187 344.453 512.086 337.178 508.388 330.256L517.213 315.583C520.076 310.932 519.24 304.847 515.425 301.032L486.922 272.529C483.107 268.592 477.022 267.878 472.371 270.741L457.698 279.566C450.783 275.868 443.508 272.889 435.872 270.503L431.697 253.926C430.385 248.561 425.612 244.862 420.125 244.862H379.811C374.324 244.862 369.551 248.561 368.238 253.926L364.064 270.503C356.55 272.767 349.275 275.868 342.353 279.566L327.68 270.741C323.029 267.878 316.944 268.714 313.129 272.529L284.626 301.032C280.811 304.847 279.975 310.932 282.838 315.583L291.663 330.256C287.965 337.171 284.986 344.446 282.6 351.967L266.023 356.142C260.536 357.454 256.843 362.227 256.843 367.708V408.022C256.843 413.509 260.542 418.282 265.907 419.594L282.484 423.769C284.748 431.282 287.849 438.557 291.547 445.48L282.722 460.152C279.859 464.803 280.695 470.889 284.51 474.703L313.013 503.206C316.828 507.143 322.913 507.741 327.564 504.995L342.237 496.169C349.152 499.868 356.427 502.846 363.948 505.233L368.123 521.809C369.435 527.174 374.208 530.873 379.695 530.873H420.009C425.496 530.873 430.269 527.174 431.581 521.809L435.756 505.233C443.269 502.968 450.544 499.868 457.582 496.169L472.255 504.995C476.906 507.857 482.991 507.143 486.806 503.206L515.309 474.703C519.124 470.889 519.96 464.803 517.097 460.152L508.272 445.48C511.97 438.564 514.949 431.289 517.335 423.769L533.912 419.594C539.399 418.282 543.098 413.509 543.098 408.028V367.714C543.098 362.227 539.399 357.454 534.028 356.142ZM519.239 398.72L504.926 402.296C500.63 403.371 497.291 406.709 496.217 411.122C493.83 421.144 489.893 430.685 484.528 439.51C482.264 443.324 482.142 448.097 484.528 451.912L492.164 464.552L476.777 479.939L464.137 472.304C460.322 470.039 455.549 470.039 451.734 472.304C442.909 477.669 433.369 481.605 423.347 484.114C419.05 485.188 415.595 488.527 414.521 492.824L410.944 507.137H389.233L385.657 492.824C384.583 488.527 381.244 485.188 376.831 484.114C366.809 481.728 357.269 477.675 348.444 472.304C344.629 469.917 339.856 469.917 336.041 472.304L323.401 479.939L308.014 464.552L315.649 451.912C317.914 448.097 317.914 443.324 315.649 439.51C310.284 430.684 306.348 421.144 303.839 411.122C302.765 406.825 299.426 403.371 295.129 402.296L280.817 398.72L280.81 377.015L295.123 373.438C299.42 372.364 302.759 369.025 303.833 364.613C306.219 354.591 310.156 345.05 315.643 336.225C318.03 332.41 318.03 327.637 315.643 323.823L308.008 311.182L323.395 295.795L336.035 303.431C339.85 305.695 344.623 305.695 348.437 303.431C357.263 298.066 366.803 294.129 376.825 291.621C381.122 290.546 384.576 287.208 385.651 282.911L389.227 268.598H410.938L414.515 282.911C415.589 287.208 418.928 290.546 423.341 291.621C433.363 294.007 442.903 298.06 451.728 303.431C455.543 305.817 460.316 305.817 464.13 303.431L476.771 295.795L492.158 311.182L484.522 323.823C482.258 327.637 482.258 332.41 484.522 336.225C489.887 345.051 493.824 354.591 496.211 364.613C497.285 368.909 500.623 372.364 504.92 373.438L519.233 377.015L519.239 398.72Z" fill="#F15B5B"/>
<path d="M399.965 315.345C360.012 315.345 327.45 347.907 327.45 387.86C327.45 427.813 360.012 460.376 399.965 460.376C439.918 460.376 472.481 427.813 472.481 387.86C472.481 347.907 439.918 315.345 399.965 315.345ZM399.965 436.403C373.128 436.403 351.301 414.576 351.301 387.738C351.301 360.901 373.128 339.074 399.965 339.074C426.803 339.074 448.629 360.901 448.629 387.738C448.629 414.576 426.803 436.403 399.965 436.403Z" fill="#F15B5B"/>
</svg>
