<svg width="800" height="796" viewBox="0 0 800 796" fill="none" xmlns="http://www.w3.org/2000/svg">
<path d="M728.209 133.177C728.209 148.923 722.185 164.664 710.253 176.597L655.395 231.578L568.433 144.616L623.29 89.6344C647.155 65.6469 686.267 65.6469 710.253 89.6344C722.185 101.567 728.209 117.436 728.209 133.177Z" fill="#F15B5B"/>
<path d="M637.912 249.052L176.163 710.802C152.053 734.789 112.942 734.789 89.0781 710.802C77.3959 699.242 71 683.739 71 667.381C71 650.902 77.3966 635.399 89.0781 623.839L550.938 162.089L637.912 249.052Z" fill="#F15B5B"/>
<path d="M657.85 523.333C657.85 564.092 624.806 597.13 584.047 597.13C543.294 597.13 510.25 564.091 510.25 523.333C510.25 482.574 543.294 449.53 584.047 449.53C624.806 449.53 657.85 482.574 657.85 523.333Z" fill="#F15B5B"/>
<path d="M425.381 128.505C425.381 162.47 397.848 190.003 363.883 190.003C329.917 190.003 302.378 162.47 302.378 128.505C302.378 94.539 329.917 67 363.883 67C397.848 67 425.381 94.539 425.381 128.505Z" fill="#F15B5B"/>
<path d="M203.975 337.614C203.975 357.994 187.453 374.509 167.073 374.509C146.694 374.509 130.172 357.994 130.172 337.614C130.172 317.234 146.694 300.712 167.073 300.712C187.453 300.712 203.975 317.234 203.975 337.614Z" fill="#F15B5B"/>
</svg>
