<svg width="800" height="800" viewBox="0 0 800 800" fill="none" xmlns="http://www.w3.org/2000/svg">
<path d="M701.75 592.863C696.501 587.614 688.627 587.614 683.384 592.863C678.135 598.112 678.135 605.986 683.384 611.229L705.686 633.53C708.31 636.155 712.247 637.467 714.871 637.467C717.496 637.467 721.433 636.155 724.057 633.53C729.306 628.281 729.306 620.408 724.057 615.165L701.75 592.863Z" fill="#F15B5B"/>
<path d="M75.9367 75.9411C73.3122 78.5656 72 83.8147 72 87.7453C85.1225 157.283 102.175 217.634 129.727 276.667C162.527 264.857 192.703 246.492 217.63 220.253C243.869 194.014 262.241 163.839 274.044 128.414C216.317 102.175 155.966 85.1219 87.7469 72C83.8162 72 78.5672 73.3123 75.9427 75.9367L75.9367 75.9411Z" fill="#F15B5B"/>
<path d="M680.765 571.879L621.726 512.84C616.477 507.591 608.604 507.591 603.361 512.84C598.112 518.089 598.112 525.962 603.361 531.205L662.4 590.244C665.024 592.869 668.961 594.181 671.585 594.181C674.21 594.181 678.147 592.869 680.771 590.244C684.702 585.001 684.702 577.128 680.765 571.879Z" fill="#F15B5B"/>
<path d="M603.359 619.113C607.296 619.113 609.92 617.801 612.545 615.176C617.794 609.927 617.794 602.054 612.545 596.811L574.495 558.761C569.246 553.511 561.372 553.511 556.129 558.761C550.88 564.01 550.88 571.883 556.129 577.126L594.179 615.176C596.798 617.801 599.422 619.113 603.359 619.113Z" fill="#F15B5B"/>
<path d="M668.953 683.394C672.89 683.394 675.514 682.082 678.139 679.457C683.388 674.208 683.388 666.335 678.139 661.092L645.339 628.292C640.09 623.043 632.216 623.043 626.973 628.292C621.724 633.541 621.724 641.414 626.973 646.657L659.773 679.457C662.391 683.394 665.016 683.394 668.953 683.394Z" fill="#F15B5B"/>
<path d="M633.531 705.691L574.492 646.652C569.243 641.403 561.369 641.403 556.126 646.652C550.877 651.901 550.877 659.775 556.126 665.018L615.165 724.057C617.79 726.681 621.727 727.994 624.351 727.994C626.976 727.994 630.912 726.681 633.537 724.057C638.78 718.814 638.78 710.94 633.531 705.691Z" fill="#F15B5B"/>
<path d="M531.187 602.051C525.938 596.802 518.065 596.802 512.822 602.051C507.573 607.3 507.573 615.173 512.822 620.416L535.123 642.718C537.748 645.342 541.684 646.654 544.309 646.654C546.933 646.654 550.87 645.342 553.495 642.718C558.744 637.469 558.744 629.595 553.495 624.352L531.187 602.051Z" fill="#F15B5B"/>
<path d="M619.109 459.051C617.797 455.114 615.172 451.177 611.235 449.865L588.934 439.367L439.36 588.94L449.858 611.242C451.171 615.178 455.108 617.803 459.044 619.115H461.669C465.606 619.115 468.23 617.803 470.855 615.179L616.484 470.861C619.109 466.925 620.421 462.987 619.109 459.051Z" fill="#F15B5B"/>
<path d="M277.984 469.535C258.306 522.013 267.486 579.746 301.598 624.35C314.72 640.097 329.149 653.214 344.896 663.711C347.521 665.024 348.833 665.024 351.457 665.024C354.082 665.024 356.706 663.711 359.331 662.399C363.268 658.462 365.892 653.213 363.268 647.964C354.082 619.1 355.394 587.613 367.204 560.061L382.951 575.808C386.888 579.745 392.137 582.369 398.698 582.369C403.947 582.369 409.196 581.057 414.445 575.808L575.82 413.12C583.694 405.247 583.694 390.819 575.82 382.945L560.073 367.199C587.625 356.7 619.112 355.388 649.289 363.262C654.538 364.574 659.787 363.262 663.724 359.325C667.66 355.388 667.66 348.827 665.036 344.89C654.538 327.837 641.422 313.403 625.675 300.279C581.064 266.167 523.337 256.981 470.859 276.665L439.359 246.495C393.436 200.572 348.831 167.772 302.909 142.845C289.787 179.582 268.797 213.695 239.933 242.557C212.381 270.109 179.581 291.098 144.156 304.222C169.083 350.145 201.883 394.75 246.494 439.359L277.984 469.535ZM285.857 285.863C300.292 271.428 318.657 264.872 337.023 264.872C355.389 264.872 373.76 271.434 388.189 285.863C415.74 314.727 415.74 360.649 388.189 388.2C373.754 402.635 355.389 409.191 337.023 409.191C318.657 409.191 300.285 402.63 285.857 388.2C256.993 360.649 256.993 313.414 285.857 285.863Z" fill="#F15B5B"/>
</svg>
